<?xml version="1.0" encoding="UTF-8"?>
<svg id="_图层_1" xmlns="http://www.w3.org/2000/svg" width="8.4666659mm" height="8.4666659mm" version="1.1" viewBox="0 0 23.9999981 23.9999981">
  <!-- Generator: Adobe Illustrator 29.4.0, SVG Export Plug-In . SVG Version: 2.1.0 Build 152)  -->
  <path d="M0-.0000292h24v23.9999993H0V-.0000292Z" fill="none"/>
  <g>
    <path d="M5.214365,5.9005918c0-.7703116.6244609-1.3947725,1.3947725-1.3947725h10.7817241c.770311,0,1.3947714.6244604,1.3947714,1.3947714v2.1679414h-1.3947714v-2.1679398H6.6091375v10.9862728h2.413088v1.3947736h-2.413088c-.7703116,0-1.3947725-.6244609-1.3947725-1.3947725V5.9005918Z"/>
    <path d="M13.7265341,19.4941788l-1.5812007-1.5589706c-2.0136106-1.7984813-3.4686021-3.0978625-3.4686021-5.088526,0-2.4517574,2.5815521-4.1355031,5.0498028-2.8877529,2.4596455-1.2420134,5.0483686.4352784,5.0483686,2.8877529,0,1.9892293-1.6321146,3.4478063-3.6973563,5.293616l-1.3510123,1.3538807ZM12.0004796,10.9922672c-1.0577193,0-1.855132.7974128-1.855132,1.8544149,0,1.3323677,1.1846456,2.3908041,2.9781072,3.9942348l.6016451.5765466.3442069-.3442069c2.0179132-1.8056523,3.2369795-2.9587456,3.2369795-4.2265745,0-1.0570022-.7974128-1.8544149-1.8544149-1.8544149-.4374297,0-.8404386.1297947-1.3467097.4352784l-.3786276.2266029-.3771934-.2266029c-.5098565-.3047666-.9128655-.4352784-1.348861-.4352784Z"/>
  </g>
</svg>